name Visual3d_SIMM_grf.mot
datacolumns 19
datarows 50
range 1.280000 1.770000
endheader
time	ground_force_vx	ground_force_vy	ground_force_vz	ground_force_px	ground_force_py	ground_force_pz	l_ground_force_vx	l_ground_force_vy	l_ground_force_vz	l_ground_force_px	l_ground_force_py	l_ground_force_pz	ground_torque_x	ground_torque_y	ground_torque_z	l_ground_torque_x	l_ground_torque_y	l_ground_torque_z
1.280000	18.353548	212.331604	-33.956448	0.211627	-0.003910	0.199446	-8.172859	63.578915	12.151793	0.400770	-0.000847	-0.110329	-0.002244	-0.388378	0.007066	0.000425	-0.035540	-0.000710
1.290000	19.524296	238.203217	-38.250820	0.211927	-0.003432	0.200957	-6.772603	51.316833	9.535133	0.400308	-0.001669	-0.105432	-0.002120	-0.366999	0.006677	0.000117	-0.009807	-0.000196
1.300000	20.159790	260.258728	-41.752087	0.212037	-0.003104	0.202010	-5.399320	39.816071	6.884489	0.399438	-0.002453	-0.099973	-0.001826	-0.316138	0.005752	-0.000173	0.014440	0.000289
1.310000	20.486280	278.510162	-44.117630	0.212032	-0.002873	0.202640	-4.119144	29.470638	4.424000	0.398280	-0.003140	-0.093271	-0.001489	-0.257739	0.004689	-0.000451	0.037697	0.000753
1.320000	20.736231	293.147736	-45.150558	0.211989	-0.002694	0.202959	-2.986028	20.590681	2.339746	0.396838	-0.003739	-0.084072	-0.001231	-0.213038	0.003876	-0.000719	0.060103	0.001201
1.330000	21.068197	304.386749	-44.840672	0.211958	-0.002536	0.203092	0.000000	0.000000	0.000000	0.000000	0.000000	0.000000	-0.001135	-0.196402	0.003573	0.000000	0.000000	0.000000
1.340000	21.527241	312.374573	-43.327091	0.211960	-0.002381	0.203140	0.000000	0.000000	0.000000	0.000000	0.000000	0.000000	-0.001227	-0.212309	0.003863	0.000000	0.000000	0.000000
1.350000	22.060347	317.169312	-40.842205	0.211988	-0.002214	0.203175	0.000000	0.000000	0.000000	0.000000	0.000000	0.000000	-0.001479	-0.255990	0.004658	0.000000	0.000000	0.000000
1.360000	22.566702	318.788116	-37.677570	0.212011	-0.002031	0.203233	0.000000	0.000000	0.000000	0.000000	0.000000	0.000000	-0.001831	-0.316956	0.005767	0.000000	0.000000	0.000000
1.370000	22.945621	317.290192	-34.133469	0.211999	-0.001832	0.203324	0.000000	0.000000	0.000000	0.000000	0.000000	0.000000	-0.002217	-0.383648	0.006980	0.000000	0.000000	0.000000
1.380000	23.129122	312.845123	-30.474876	0.211927	-0.001623	0.203444	0.000000	0.000000	0.000000	0.000000	0.000000	0.000000	-0.002580	-0.446513	0.008124	0.000000	0.000000	0.000000
1.390000	23.092398	305.785095	-26.905224	0.211785	-0.001409	0.203584	0.000000	0.000000	0.000000	0.000000	0.000000	0.000000	-0.002886	-0.499539	0.009089	0.000000	0.000000	0.000000
1.400000	22.847252	296.615356	-23.561401	0.211577	-0.001195	0.203740	0.000000	0.000000	0.000000	0.000000	0.000000	0.000000	-0.003124	-0.540660	0.009837	0.000000	0.000000	0.000000
1.410000	22.432440	285.979645	-20.528063	0.211320	-0.000982	0.203916	0.000000	0.000000	0.000000	0.000000	0.000000	0.000000	-0.003295	-0.570401	0.010378	0.000000	0.000000	0.000000
1.420000	21.893536	274.576202	-17.845970	0.211041	-0.000771	0.204116	0.000000	0.000000	0.000000	0.000000	0.000000	0.000000	-0.003412	-0.590534	0.010744	0.000000	0.000000	0.000000
1.430000	21.266226	263.070190	-15.516669	0.210768	-0.000564	0.204344	0.000000	0.000000	0.000000	0.000000	0.000000	0.000000	-0.003483	-0.602813	0.010968	0.000000	0.000000	0.000000
1.440000	20.566822	252.015152	-13.510189	0.210528	-0.000361	0.204601	0.000000	0.000000	0.000000	0.000000	0.000000	0.000000	-0.003515	-0.608472	0.011071	0.000000	0.000000	0.000000
1.450000	19.797771	241.805939	-11.778397	0.210340	-0.000163	0.204884	0.000000	0.000000	0.000000	0.000000	0.000000	0.000000	-0.003511	-0.607710	0.011057	0.000000	0.000000	0.000000
1.460000	18.957180	232.664749	-10.268788	0.210209	0.000028	0.205186	0.000000	0.000000	0.000000	0.000000	0.000000	0.000000	-0.003466	-0.599931	0.010915	0.000000	0.000000	0.000000
1.470000	18.047241	224.670349	-8.933891	0.210136	0.000213	0.205501	0.000000	0.000000	0.000000	0.000000	0.000000	0.000000	-0.003377	-0.584461	0.010634	0.000000	0.000000	0.000000
1.480000	17.079914	217.790649	-7.738751	0.210118	0.000392	0.205819	0.000000	0.000000	0.000000	0.000000	0.000000	0.000000	-0.003240	-0.560741	0.010202	0.000000	0.000000	0.000000
1.490000	16.077871	211.928177	-6.660346	0.210139	0.000567	0.206122	0.000000	0.000000	0.000000	0.000000	0.000000	0.000000	-0.003054	-0.528561	0.009617	0.000000	0.000000	0.000000
1.500000	15.073795	206.971771	-5.677631	0.210185	0.000739	0.206393	0.000000	0.000000	0.000000	0.000000	0.000000	0.000000	-0.002825	-0.488896	0.008895	0.000000	0.000000	0.000000
1.510000	14.104289	202.824646	-4.762298	0.210251	0.000904	0.206620	0.000000	0.000000	0.000000	0.000000	0.000000	0.000000	-0.002563	-0.443622	0.008071	0.000000	0.000000	0.000000
1.520000	13.203644	199.420456	-3.883279	0.210341	0.001059	0.206791	0.000000	0.000000	0.000000	0.000000	0.000000	0.000000	-0.002285	-0.395476	0.007195	0.000000	0.000000	0.000000
1.530000	12.401533	196.704712	-3.009736	0.210458	0.001197	0.206905	0.000000	0.000000	0.000000	0.000000	0.000000	0.000000	-0.002009	-0.347782	0.006328	0.000000	0.000000	0.000000
1.540000	11.721496	194.626663	-2.116186	0.210605	0.001315	0.206966	0.000000	0.000000	0.000000	0.000000	0.000000	0.000000	-0.001755	-0.303853	0.005528	0.000000	0.000000	0.000000
1.550000	11.178859	193.131149	-1.186989	0.210781	0.001411	0.206976	0.000000	0.000000	0.000000	0.000000	0.000000	0.000000	-0.001535	-0.265696	0.004834	0.000000	0.000000	0.000000
1.560000	10.775442	192.154648	-0.221845	0.210979	0.001486	0.206940	0.000000	0.000000	0.000000	0.000000	0.000000	0.000000	-0.001353	-0.234166	0.004260	0.000000	0.000000	0.000000
1.570000	10.502269	191.636627	0.772464	0.211187	0.001547	0.206866	0.000000	0.000000	0.000000	0.000000	0.000000	0.000000	-0.001208	-0.209164	0.003806	0.000000	0.000000	0.000000
1.580000	10.340359	191.533218	1.782083	0.211393	0.001595	0.206760	0.000000	0.000000	0.000000	0.000000	0.000000	0.000000	-0.001097	-0.189856	0.003454	0.000000	0.000000	0.000000
1.590000	10.264611	191.823074	2.805245	0.211588	0.001635	0.206626	0.000000	0.000000	0.000000	0.000000	0.000000	0.000000	-0.001010	-0.174778	0.003180	0.000000	0.000000	0.000000
1.600000	10.244664	192.516724	3.860506	0.211766	0.001669	0.206464	0.000000	0.000000	0.000000	0.000000	0.000000	0.000000	-0.000939	-0.162488	0.002956	0.000000	0.000000	0.000000
1.610000	10.252894	193.650833	4.983655	0.211934	0.001697	0.206285	0.000000	0.000000	0.000000	0.000000	0.000000	0.000000	-0.000878	-0.151910	0.002764	0.000000	0.000000	0.000000
1.620000	10.264362	195.253799	6.217156	0.212102	0.001713	0.206100	0.000000	0.000000	0.000000	0.000000	0.000000	0.000000	-0.000817	-0.141451	0.002574	0.000000	0.000000	0.000000
1.630000	10.257324	197.312515	7.603869	0.212283	0.001716	0.205916	0.000000	0.000000	0.000000	0.000000	0.000000	0.000000	-0.000748	-0.129493	0.002356	0.000000	0.000000	0.000000
1.640000	10.213963	199.755173	9.169294	0.212490	0.001704	0.205726	0.000000	0.000000	0.000000	0.000000	0.000000	0.000000	-0.000665	-0.115156	0.002095	0.000000	0.000000	0.000000
1.650000	10.117448	202.431168	10.915232	0.212731	0.001681	0.205519	0.000000	0.000000	0.000000	0.000000	0.000000	0.000000	-0.000567	-0.098205	0.001787	0.000000	0.000000	0.000000
1.660000	9.953250	205.106094	12.812605	0.213002	0.001651	0.205288	0.000000	0.000000	0.000000	0.000000	0.000000	0.000000	-0.000454	-0.078504	0.001428	0.000000	0.000000	0.000000
1.670000	9.713307	207.492462	14.801798	0.213281	0.001621	0.205049	0.000000	0.000000	0.000000	0.000000	0.000000	0.000000	-0.000327	-0.056618	0.001030	0.000000	0.000000	0.000000
1.680000	9.397038	209.300720	16.798681	0.213541	0.001594	0.204839	0.000000	0.000000	0.000000	0.000000	0.000000	0.000000	-0.000191	-0.033089	0.000602	0.000000	0.000000	0.000000
1.690000	9.011297	210.270203	18.716398	0.213752	0.001572	0.204702	0.000000	0.000000	0.000000	0.000000	0.000000	0.000000	-0.000049	-0.008403	0.000153	0.000000	0.000000	0.000000
1.700000	8.567727	210.200150	20.481518	0.213886	0.001558	0.204676	0.000000	0.000000	0.000000	0.000000	0.000000	0.000000	0.000096	0.016539	-0.000301	0.000000	0.000000	0.000000
1.710000	8.084097	208.943344	22.039602	0.213921	0.001559	0.204778	0.000000	0.000000	0.000000	0.000000	0.000000	0.000000	0.000233	0.040378	-0.000735	0.000000	0.000000	0.000000
1.720000	7.579741	206.377747	23.349140	0.213848	0.001588	0.205009	0.000000	0.000000	0.000000	0.000000	0.000000	0.000000	0.000355	0.061416	-0.001117	0.000000	0.000000	0.000000
1.730000	7.069953	202.372650	24.374996	0.213675	0.001659	0.205358	0.000000	0.000000	0.000000	0.000000	0.000000	0.000000	0.000449	0.077732	-0.001414	0.000000	0.000000	0.000000
1.740000	6.563488	196.770065	25.083746	0.213435	0.001789	0.205803	0.000000	0.000000	0.000000	0.000000	0.000000	0.000000	0.000504	0.087309	-0.001589	0.000000	0.000000	0.000000
1.750000	6.063758	189.367004	25.438971	0.213179	0.001991	0.206320	0.000000	0.000000	0.000000	0.000000	0.000000	0.000000	0.000510	0.088304	-0.001607	0.000000	0.000000	0.000000
1.760000	5.570107	179.954514	25.401962	0.212987	0.002266	0.206885	0.000000	0.000000	0.000000	0.000000	0.000000	0.000000	0.000464	0.080382	-0.001462	0.000000	0.000000	0.000000
1.770000	5.079186	168.411743	24.944107	0.212961	0.002599	0.207476	0.000000	0.000000	0.000000	0.000000	0.000000	0.000000	0.000373	0.064494	-0.001173	0.000000	0.000000	0.000000
